HIERARCHY
ROOT root
{
	OFFSET	0	13.1	24.9
	CHANNELS 6  Xposition Yposition Zposition Xrotation Yrotation Zrotation
	JOINT spine_1
	{
		OFFSET	0	9.99999	0
		CHANNELS 3  Xrotation Yrotation Zrotation
		JOINT spine_2
		{
			OFFSET	0	112	-10
			CHANNELS 3  Xrotation Yrotation Zrotation
			JOINT spine_3
			{
				OFFSET	0	206.5	19.3
				CHANNELS 3  Xrotation Yrotation Zrotation
				JOINT spine_4
				{
					OFFSET	0	110.4	14.6
					CHANNELS 3  Xrotation Yrotation Zrotation
					JOINT neck_1
					{
						OFFSET	0	71.8	-50.3
						CHANNELS 3  Xrotation Yrotation Zrotation
						JOINT neck_2
						{
							OFFSET	0	86.2	-25.8
							CHANNELS 3  Xrotation Yrotation Zrotation
							JOINT head_ee
							{
								OFFSET	0	179.8	-8.7
								CHANNELS 3  Xrotation Yrotation Zrotation
								End Site
								{
									OFFSET	1	0	0
								}
							}
						}
					}
					JOINT left_clavicle
					{
						OFFSET	-43.2	22.4	-70.8
						CHANNELS 3  Xrotation Yrotation Zrotation
						JOINT left_shoulder
						{
							OFFSET	-93.9	-5.79999	48.7
							CHANNELS 3  Xrotation Yrotation Zrotation
							JOINT left_elbow
							{
								OFFSET	-291.4	-30.8	15.2
								CHANNELS 3  Xrotation Yrotation Zrotation
								JOINT left_lowarm_twist
								{
									OFFSET	-110.7	-3.89999	13.6
									CHANNELS 3  Xrotation Yrotation Zrotation
									JOINT left_hand
									{
										OFFSET	-110.7	-3.89999	13.6
										CHANNELS 3  Xrotation Yrotation Zrotation
										JOINT left_ee
										{
											OFFSET	-80.8	-5.10001	12.1
											CHANNELS 3  Xrotation Yrotation Zrotation
											End Site
											{
												OFFSET	1	0	0
											}
										}
									}
								}
							}
						}
					}
					JOINT right_clavicle
					{
						OFFSET	43.2	22.4	-70.8
						CHANNELS 3  Xrotation Yrotation Zrotation
						JOINT right_shoulder
						{
							OFFSET	93.9	-5.79999	48.7
							CHANNELS 3  Xrotation Yrotation Zrotation
							JOINT right_elbow
							{
								OFFSET	291.4	-30.8	15.2
								CHANNELS 3  Xrotation Yrotation Zrotation
								JOINT right_lowarm_twist
								{
									OFFSET	110.7	-3.89999	13.6
									CHANNELS 3  Xrotation Yrotation Zrotation
									JOINT right_hand
									{
										OFFSET	110.7	-3.89999	13.6
										CHANNELS 3  Xrotation Yrotation Zrotation
										JOINT right_ee
										{
											OFFSET	80.8	-5.10001	12.1
											CHANNELS 3  Xrotation Yrotation Zrotation
											End Site
											{
												OFFSET	1	0	0
											}
										}
									}
								}
							}
						}
					}
				}
			}
		}
	}
	JOINT left_hip
	{
		OFFSET	-82.8	-127.5	0.300001
		CHANNELS 3  Xrotation Yrotation Zrotation
		JOINT left_knee
		{
			OFFSET	-28.2	-396.7	2.2
			CHANNELS 3  Xrotation Yrotation Zrotation
			JOINT left_ankle
			{
				OFFSET	-11.7	-411.3	35.4
				CHANNELS 3  Xrotation Yrotation Zrotation
				JOINT left_toes
				{
					OFFSET	0	-60	-88.6
					CHANNELS 3  Xrotation Yrotation Zrotation
					JOINT left_foot_ee
					{
						OFFSET	-22.5	-16.5	-42.2
						CHANNELS 3  Xrotation Yrotation Zrotation
						End Site
						{
							OFFSET	1	0	0
						}
					}
				}
			}
		}
	}
	JOINT right_hip
	{
		OFFSET	82.8	-127.5	0.300001
		CHANNELS 3  Xrotation Yrotation Zrotation
		JOINT right_knee
		{
			OFFSET	28.2	-396.7	2.2
			CHANNELS 3  Xrotation Yrotation Zrotation
			JOINT right_ankle
			{
				OFFSET	11.7	-411.3	35.4
				CHANNELS 3  Xrotation Yrotation Zrotation
				JOINT right_toes
				{
					OFFSET	0	-60	-88.6
					CHANNELS 3  Xrotation Yrotation Zrotation
					JOINT right_foot_ee
					{
						OFFSET	22.5	-16.5	-42.2
						CHANNELS 3  Xrotation Yrotation Zrotation
						End Site
						{
							OFFSET	1	0	0
						}
					}
				}
			}
		}
	}
}
MOTION
Frames: 5
Frame Time: 0.02
1351.03 681.569 -587.482 -4.73296 -61.4643 6.98336 0.270031 -0.79879 -4.43045 0.2808 -0.515539 -4.47219 0.326165 0.410711 -4.48301 0.298257 -0.301715 -4.49164 -5.76251 -7.08677 0.0563695 -5.73842 -13.1271 -1.24889 -0.0 0.0 -0.0 4.33734 -26.5549 6.36503 -14.0474 -34.6478 86.1267 0.343655 -9.66141 0.029043 -16.5414 -0.866811 1.92197 2.34717 29.4471 24.8938 -0.0 0.0 -0.0 -2.83475 -4.507 4.71197 16.4456 8.63742 -55.0531 3.27474 58.3353 -1.82811 35.7716 0.147791 4.49384 -2.94701 -8.45379 15.7354 0.0 0.0 0.0 41.9844 -14.5794 3.15128 -21.7617 0.270546 3.30851 13.1072 23.2315 -1.91208 31.477 -0.0 -0.0 -0.0 0.0 -0.0 -23.0901 -22.4785 -25.1335 3.63031 0.16643 0.532064 38.4564 18.2208 5.14011 -25.3256 0.0 0.0 0.0 0.0 0.0 
1372.77 681.83 -596.857 -3.61951 -61.5228 7.85893 0.201191 -0.776937 -4.31467 0.211406 -0.501076 -4.35526 0.254556 0.406391 -4.3651 0.22809 -0.287415 -4.37452 -5.2155 -7.38951 -0.0491523 -5.17967 -13.5686 -1.35177 -0.0 0.0 -0.0 4.83822 -26.2707 7.48301 -14.5286 -34.6479 85.2054 0.361579 -10.1551 0.0321274 -16.5266 -0.865795 1.92038 2.36544 28.3507 24.7866 -0.0 0.0 -0.0 -2.94591 -4.32365 4.9522 16.7993 9.0523 -55.6714 2.81974 54.3904 -1.44907 36.6414 0.186193 4.5982 -3.04232 -12.2395 14.3377 0.0 0.0 0.0 40.4369 -14.3047 2.9608 -23.0637 0.246689 3.50687 11.9783 23.0812 -1.75287 31.2642 -0.0 -0.0 -0.0 0.0 -0.0 -22.603 -22.0424 -23.5483 -0.340011 -0.0138513 -0.0503397 38.4811 18.1341 5.13909 -24.9264 0.0 0.0 0.0 0.0 0.0 
1392.15 684.164 -602.79 -4.01513 -62.7275 7.24332 0.289504 -0.724671 -4.10849 0.298774 -0.461999 -4.14619 0.336544 0.395643 -4.15303 0.31258 -0.26463 -4.16342 -6.63803 -7.23527 0.747513 -6.62473 -13.9619 -0.67928 -0.0 0.0 -0.0 5.0119 -26.1804 7.87005 -14.8666 -34.7186 84.1914 0.409061 -11.4553 0.0410294 -16.3043 -0.850534 1.89635 2.30314 25.6402 23.8136 -0.0 0.0 -0.0 -2.99165 -4.73232 4.96402 16.5925 9.20579 -57.1637 2.63904 52.5774 -1.30382 36.7713 0.192068 4.61374 -3.08645 -13.7526 13.798 0.0 0.0 0.0 39.2067 -14.295 2.32347 -24.3635 0.218379 3.70432 10.2538 23.7297 -1.51373 30.8731 -0.0 -0.0 -0.0 0.0 -0.0 -21.2722 -21.9593 -21.9705 -3.54898 -0.129767 -0.529112 38.7106 17.7954 5.14747 -24.6267 0.0 0.0 0.0 0.0 0.0 
1407.79 691.293 -607.998 -3.84842 -63.4447 6.73775 0.404926 -0.737461 -4.06589 0.413994 -0.477467 -4.10449 0.452188 0.363597 -4.11612 0.428669 -0.290462 -4.12191 -6.41883 -7.15335 1.57122 -6.39117 -14.3976 0.191391 -0.0 0.0 -0.0 5.16631 -26.1378 8.21039 -13.5299 -34.6889 84.0075 0.400988 -11.2351 0.0394411 -16.5708 -0.868839 1.92515 2.28901 26.5194 23.9248 -0.0 0.0 -0.0 -3.0745 -5.96613 4.89206 16.2834 9.24806 -58.5671 2.56549 51.7936 -1.24572 36.9209 0.198871 4.63161 -2.89482 -14.8466 11.9745 0.0 0.0 0.0 38.258 -13.816 2.38353 -23.823 0.230695 3.6223 5.37217 25.4486 -0.811643 30.1871 -0.0 -0.0 -0.0 0.0 -0.0 -20.2741 -20.1226 -19.8488 -4.53548 -0.159988 -0.677492 37.5168 19.4869 5.1014 -24.5925 0.0 0.0 0.0 0.0 0.0 
1423.13 691.256 -612.766 -3.39908 -64.0391 7.26331 0.370534 -0.704056 -3.97073 0.379191 -0.45017 -4.0074 0.414541 0.373339 -4.01527 0.392146 -0.264955 -4.02386 -6.30621 -7.32129 1.22196 -6.28003 -14.4489 -0.179142 -0.0 0.0 -0.0 5.13219 -25.9533 8.15513 -13.4462 -34.5937 82.8133 0.454359 -12.6847 0.0505021 -16.5952 -0.870522 1.92778 2.38157 25.9535 24.3757 -0.0 0.0 -0.0 -3.24747 -5.82251 5.23689 15.0271 9.38991 -59.0131 2.46904 50.7226 -1.17049 36.8923 0.197569 4.62821 -3.05436 -16.2016 12.2453 0.0 0.0 0.0 37.6581 -13.946 1.96083 -25.8154 0.181469 3.92407 6.00915 24.5546 -0.902046 29.937 -0.0 -0.0 -0.0 0.0 -0.0 -20.0357 -21.1284 -19.7637 -7.21419 -0.229108 -1.08273 37.8157 17.3579 5.04789 -24.9366 0.0 0.0 0.0 0.0 0.0 
